# xmcd
#
# Track frame offsets:
#	150
#	20513
#	37228
#	55172
#	81507
#	100667
#	123419
#	138308
#	159349
#	183245
#	210998
#	233605
#	251636
#	267648
#	287451
#	305920
#	328411
#
# Disc length: 4553 seconds
#
# Revision: 0
# Processed by: cddbd v1.5.2PL0 Copyright (c) Steve Scherf et al.
# Submitted via: EasyCDDAExtractor 10.0.6.1
#
DISCID=f611c711
DTITLE=Various Artist - Living Chicago Blues By Joe
DYEAR=2013
DGENRE=Blues
TTITLE0=Carey Bell's Blues Harp Band  - Laundromat Blues
TTITLE1=Eddie Shaw and the Wolf Gang  - Sitting On Top Of The World
TTITLE2=The Jimmy Johnson Blues Band  - Serves Me Right To Suffer
TTITLE3=The Jimmy Johnson Blues Band  - Your Turn To Cry
TTITLE4=Lonnie Brooks Blues Band  - Don't Answer That Door
TTITLE5=Pinetop Perkins  - Blues After Hours
TTITLE6=A.C Reed and the Sparkplugs  - Hard Times
TTITLE7=Lacy Gibson  - Drown In My Own Tears
TTITLE8=Louie Lee with Carey Bell  - Nobody Knows My Troubles
TTITLE9=The Sons of Blues  - Have You Ever Loved a Woman
TTITLE10=Andrew Brown  - I Got News For You
TTITLE11=Andrew Brown  - Two Years
TTITLE12=Big Leon Brooks  - Blues for a Real Man
TTITLE13=Big Leon Brooks  - Country Boy
TTITLE14=Detroit Junior  - If I Hadn't Been High
TTITLE15=Queen Sylvia Embry  - Going Upstairs
TTITLE16=Queen Sylvia Embry  - Tired of being Pushed Around
EXTD=
EXTT0=
EXTT1=
EXTT2=
EXTT3=
EXTT4=
EXTT5=
EXTT6=
EXTT7=
EXTT8=
EXTT9=
EXTT10=
EXTT11=
EXTT12=
EXTT13=
EXTT14=
EXTT15=
EXTT16=
PLAYORDER=
